<svg xmlns="http://www.w3.org/2000/svg" viewBox="0 0 400 400" fill="#A8341F">
  
  <circle cx="200" cy="200" r="190" fill="#EFE4CE"></circle>
  
  <g fill="#F8F1E4" stroke="#C7B89B" stroke-width="1.5">
    <ellipse cx="200" cy="40" rx="6" ry="3" transform="rotate(0 200 200)"></ellipse>
    <ellipse cx="200" cy="40" rx="6" ry="3" transform="rotate(20 200 200)"></ellipse>
    <ellipse cx="200" cy="40" rx="6" ry="3" transform="rotate(40 200 200)"></ellipse>
    <ellipse cx="200" cy="40" rx="6" ry="3" transform="rotate(60 200 200)"></ellipse>
    <ellipse cx="200" cy="40" rx="6" ry="3" transform="rotate(80 200 200)"></ellipse>
    <ellipse cx="200" cy="40" rx="6" ry="3" transform="rotate(100 200 200)"></ellipse>
    <ellipse cx="200" cy="40" rx="6" ry="3" transform="rotate(120 200 200)"></ellipse>
    <ellipse cx="200" cy="40" rx="6" ry="3" transform="rotate(140 200 200)"></ellipse>
    <ellipse cx="200" cy="40" rx="6" ry="3" transform="rotate(160 200 200)"></ellipse>
    <ellipse cx="200" cy="40" rx="6" ry="3" transform="rotate(180 200 200)"></ellipse>
    <ellipse cx="200" cy="40" rx="6" ry="3" transform="rotate(200 200 200)"></ellipse>
    <ellipse cx="200" cy="40" rx="6" ry="3" transform="rotate(220 200 200)"></ellipse>
    <ellipse cx="200" cy="40" rx="6" ry="3" transform="rotate(240 200 200)"></ellipse>
    <ellipse cx="200" cy="40" rx="6" ry="3" transform="rotate(260 200 200)"></ellipse>
    <ellipse cx="200" cy="40" rx="6" ry="3" transform="rotate(280 200 200)"></ellipse>
    <ellipse cx="200" cy="40" rx="6" ry="3" transform="rotate(300 200 200)"></ellipse>
    <ellipse cx="200" cy="40" rx="6" ry="3" transform="rotate(320 200 200)"></ellipse>
    <ellipse cx="200" cy="40" rx="6" ry="3" transform="rotate(340 200 200)"></ellipse>
  </g>
  
  <circle cx="200" cy="200" r="100" fill="#E8763A"></circle>
  <circle cx="200" cy="200" r="60" fill="#A8341F"></circle>
  
  <circle cx="160" cy="160" r="6" fill="#7BA05B"></circle>
  <circle cx="250" cy="180" r="5" fill="#7BA05B"></circle>
  <circle cx="220" cy="240" r="6" fill="#7BA05B"></circle>
  <circle cx="170" cy="230" r="5" fill="#7BA05B"></circle>
  
  <ellipse cx="190" cy="170" rx="8" ry="3" fill="#2A1E17"></ellipse>
  <ellipse cx="230" cy="210" rx="8" ry="3" fill="#2A1E17" transform="rotate(45 230 210)"></ellipse>
  <ellipse cx="180" cy="220" rx="8" ry="3" fill="#2A1E17" transform="rotate(-30 180 220)"></ellipse>
  
  <g fill="none" stroke="#2A1E17" stroke-width="2" stroke-linecap="round" opacity="0.4">
    <path d="M170 80 q-8 -14 4 -28 q12 -14 -2 -28"></path>
    <path d="M200 60 q-8 -14 4 -28 q12 -14 -2 -28"></path>
    <path d="M230 80 q-8 -14 4 -28 q12 -14 -2 -28"></path>
  </g>
</svg>