<svg xmlns="http://www.w3.org/2000/svg" viewBox="0 0 80 80" fill="none" stroke="currentColor" stroke-width="2.5" stroke-linecap="round" stroke-linejoin="round">
  <line x1="40" y1="8" x2="40" y2="72"></line>
  <path d="M40 24 q-10 -2 -16 -10 q12 -2 16 8"></path>
  <path d="M40 24 q10 -2 16 -10 q-12 -2 -16 8"></path>
  <path d="M40 40 q-10 -2 -16 -10 q12 -2 16 8"></path>
  <path d="M40 40 q10 -2 16 -10 q-12 -2 -16 8"></path>
  <path d="M40 56 q-10 -2 -16 -10 q12 -2 16 8"></path>
  <path d="M40 56 q10 -2 16 -10 q-12 -2 -16 8"></path>
</svg>